# xmcd
#
# Track frame offsets: 
#        150
#        28146
#        64929
#        80497
#        102822
#        129564
#
# Disc length: 1954 seconds
#
# Revision: 0
# Processed by: cddbd v1.5.2PL0 Copyright (c) Steve Scherf et al.
# Submitted via: ExactAudioCopy v1.1
#
DISCID=4b07a006
DTITLE=Eddie Harris - High Voltage
DYEAR=1969
DGENRE=Jazz
TTITLE0=Movin' On Out
TTITLE1=Funky Doo
TTITLE2=The Children's Song
TTITLE3=Ballad (For My Love)
TTITLE4=Is There A Place For Us
TTITLE5=Listen Here
EXTD=
EXTT0=
EXTT1=
EXTT2=
EXTT3=
EXTT4=
EXTT5=
PLAYORDER=
